# xmcd
#
# Track frame offsets: 
#        150
#        24775
#        46290
#        68767
#        105126
#        127599
#        150902
#        173845
#        199198
#        229792
#        265019
#        284151
#        304889
#
# Disc length: 4293 seconds
#
# Revision: 0
# Processed by: cddbd v1.5.2PL0 Copyright (c) Steve Scherf et al.
# Submitted via: ExactAudioCopy v1.0b3
#
DISCID=9c10c30d
DTITLE=Death - Spiritual Healing [CD3: Live at Streets, New Rochell
DTITLE=e, NY, March 17th, 1990 - Unearthed Pre-Human Rehearsals)
DYEAR=2012
DGENRE=Death Metal
TTITLE0=Living Monstrosity [Live]
TTITLE1=Pull The Plug [Live]
TTITLE2=Zombie Ritual [Live]
TTITLE3=Spiritual Healing [Live]
TTITLE4=Left To Die [Live]
TTITLE5=Defensive Personalities [Live]
TTITLE6=Genetic Reconstruction [Live]
TTITLE7=Open Casket [Live]
TTITLE8=Within The Mind [Live]
TTITLE9=Leprosy [Live]
TTITLE10=Suicide Machine [Demo]
TTITLE11=Together As One [Demo]
TTITLE12=See Through Dreams [Demo]
EXTD=
EXTT0=
EXTT1=
EXTT2=
EXTT3=
EXTT4=
EXTT5=
EXTT6=
EXTT7=
EXTT8=
EXTT9=
EXTT10=
EXTT11=
EXTT12=
PLAYORDER=
